<?xml version="1.0" encoding="utf-8"?><svg xml:space="preserve" viewBox="0 0 100 100" y="0px" x="0px" xmlns:xlink="http://www.w3.org/1999/xlink" xmlns="http://www.w3.org/2000/svg" id="圖層_1" version="1.1" width="246px" height="246px" style="width:100%;height:100%;background-size:initial;background-repeat-y:initial;background-repeat-x:initial;background-position-y:initial;background-position-x:initial;background-origin:initial;background-color:initial;background-clip:initial;background-attachment:initial;animation-play-state:paused" ><g class="ldl-scale" style="transform-origin:50% 50%;transform:rotate(0deg) scale(0.8, 0.8);animation-play-state:paused" ><path d="M63.35,11.89c-0.31-2.35-2.17-4.3-4.51-4.7c-1.35-0.23-2.62,0.04-3.68,0.64c-0.98-1.54-2.7-2.56-4.65-2.56 c-2.15,0-4.01,1.23-4.92,3.03C44.37,7.34,42.74,6.87,41,7.23c-2.07,0.42-3.75,2.07-4.22,4.13c-0.37,1.63-0.01,3.18,0.82,4.39 c0,0.1-0.02,0.2-0.02,0.3v0c0,1.76,1.42,3.18,3.18,3.18h18.51c1.76,0,3.18-1.42,3.18-3.18v0c0-0.1-0.01-0.2-0.02-0.3 C63.17,14.67,63.54,13.33,63.35,11.89z" fill="#C33837" style="fill:rgb(195, 56, 55);animation-play-state:paused" ></path>
<g style="animation-play-state:paused" ><path d="M70.71,16.22H29.33c-7.35,0-13.31,5.96-13.31,13.31v29.66v10.45c0,9.16,7.43,19.09,16.59,19.09h34.83 c9.16,0,16.59-9.93,16.59-19.09V59.19V29.53C84.02,22.18,78.06,16.22,70.71,16.22z" fill="#F2F2F3" style="fill:rgb(242, 242, 243);animation-play-state:paused" ></path>
<path d="M66.16,88.72c2.06-3.26,3.27-7.17,3.27-11.39c0-11.32-8.69-20.28-19.41-20.28s-19.41,8.95-19.41,20.28 c0,4.21,1.21,8.13,3.27,11.39H66.16z" fill="#FFF7E9" style="fill:rgb(255, 247, 233);animation-play-state:paused" ></path></g>
<g style="animation-play-state:paused" ><circle r="5.47" cy="31.39" cx="37.97" style="animation-play-state:paused" ></circle>
<circle r="5.47" cy="31.39" cx="62.07" style="animation-play-state:paused" ></circle></g>
<path d="M84.02,88.72L84.02,88.72c-5.31,0-9.61-4.3-9.61-9.61v-9.54c0-5.31,4.3-9.61,9.61-9.61h0V88.72z" fill="#42210B" style="fill:rgb(66, 33, 11);animation-play-state:paused" ></path>
<path d="M15.98,88.72L15.98,88.72c5.31,0,9.61-4.3,9.61-9.61v-9.54c0-5.31-4.3-9.61-9.61-9.61h0V88.72z" fill="#42210B" style="fill:rgb(66, 33, 11);animation-play-state:paused" ></path>
<g style="animation-play-state:paused" ><path d="M53.41,51.22c-1.3,0-5.48,0-6.78,0c-2.81,0-5.09,4.51-5.09,10.08c0,5.57,2.28,10.08,5.09,10.08 c1.3,0,2.49-0.98,3.39-2.58c0.9,1.6,2.09,2.58,3.39,2.58c2.81,0,5.09-4.51,5.09-10.08C58.5,55.74,56.22,51.22,53.41,51.22z" fill="#C33837" style="fill:rgb(195, 56, 55);animation-play-state:paused" ></path>
<path d="M57.8,47.52c0,4.1-7.78,7.42-7.78,7.42s-7.78-3.32-7.78-7.42s3.48-5.97,7.78-5.97S57.8,43.42,57.8,47.52z" fill="#FCEE21" style="fill:rgb(252, 238, 33);animation-play-state:paused" ></path></g>
<metadata xmlns:d="https://loading.io/stock/" style="animation-play-state:paused" ><d:name style="animation-play-state:paused" >animal</d:name>


<d:tags style="animation-play-state:paused" >animal,chicken,rooster,bird,poultry,fowl</d:tags>


<d:license style="animation-play-state:paused" >by</d:license>


<d:slug style="animation-play-state:paused" >xg33tl</d:slug></metadata></g><!-- generated by https://loading.io/ --></svg>