<?xml version="1.0" encoding="utf-8"?><svg xml:space="preserve" viewBox="0 0 100 100" y="0" x="0" xmlns="http://www.w3.org/2000/svg" id="Layer_1" version="1.1" width="200px" height="200px" xmlns:xlink="http://www.w3.org/1999/xlink" style="width:100%;height:100%;background-size:initial;background-repeat-y:initial;background-repeat-x:initial;background-position-y:initial;background-position-x:initial;background-origin:initial;background-image:initial;background-color:rgb(255, 255, 255);background-clip:initial;background-attachment:initial;animation-play-state:paused" ><g class="ldl-scale" style="transform-origin:50% 50%;transform:rotate(0deg) scale(0.8, 0.8);animation-play-state:paused" ><g style="animation-play-state:paused" ><path stroke-miterlimit="10" stroke-width="3.5" stroke="#333" fill="#f4e6c8" d="M44.435 65.775L30.797 43.852a3.078 3.078 0 0 0-4.239-.987h0a3.078 3.078 0 0 0-.987 4.239l13.564 21.804c-1.391 1.073-1.771 3.046-.788 4.558 1.032 1.588 3.282 2.021 4.832.933a3.41 3.41 0 0 0 1.354-1.992 3.412 3.412 0 0 0 3.019-.779 3.425 3.425 0 0 0 .919-3.782c-.671-1.708-2.435-2.48-4.036-2.071z" style="stroke:rgb(51, 51, 51);fill:rgb(244, 230, 200);animation-play-state:paused" ></path>
<path stroke-miterlimit="10" stroke-width="3.5" stroke="#333" fill="#f7b26a" d="M38.988 34.222c6.202 9.969 5.499 21.616-1.57 26.014s-17.828-.119-24.03-10.088S9.931 31.813 17 27.415s15.786-3.163 21.988 6.807z" style="stroke:rgb(51, 51, 51);fill:rgb(247, 178, 106);animation-play-state:paused" ></path></g>
<g style="animation-play-state:paused" ><path stroke-miterlimit="10" stroke-width="3.5" stroke="#333" fill="#f47e5f" d="M59.028 37.017l-.193 6.056-.187 5.845-.11 3.439-.077 2.42-.086 2.707-.077 2.42-.286 8.952c-.025.781.907 1.203 1.477.668l7.738-7.26 6.075-5.699 9.546-8.955 6.515-6.112c.921-.864.93-2.323.021-3.198v0c-.161-.155-.329-.298-.492-.45-.398-.372-.796-.746-1.204-1.101-.169-.147-.345-.283-.516-.427-.411-.346-.821-.694-1.241-1.023-.164-.129-.334-.246-.499-.372-.435-.331-.871-.663-1.315-.976-.15-.105-.304-.201-.454-.304a44.67 44.67 0 0 0-1.417-.944c-.123-.078-.249-.147-.373-.224a44.01 44.01 0 0 0-1.546-.921c-.105-.059-.213-.112-.318-.17a44.786 44.786 0 0 0-1.648-.873c-.079-.039-.159-.074-.237-.112a44.344 44.344 0 0 0-1.77-.827c-.054-.024-.109-.044-.163-.067a44.102 44.102 0 0 0-1.88-.768l-.097-.035a44.188 44.188 0 0 0-1.978-.696l-.037-.011a44.917 44.917 0 0 0-10.527-2.06c-1.247-.092-2.316.888-2.356 2.138l-.288 8.94z" style="stroke:rgb(51, 51, 51);fill:rgb(244, 126, 95);animation-play-state:paused" ></path>
<path stroke-miterlimit="10" stroke-width="3.5" stroke="#333" fill="#f7b26a" d="M58.835 43.074l-.187 5.845-.11 3.439-.077 2.42-.086 2.707-.077 2.42-.286 8.952c-.025.781.907 1.203 1.477.668l7.738-7.26 6.075-5.699 9.546-8.955c-6.443-6.868-15.094-10.417-23.821-10.593l-.192 6.056z" style="stroke:rgb(51, 51, 51);fill:rgb(247, 178, 106);animation-play-state:paused" ></path>
<path fill="#849b87" d="M68.756 57.846c-1.382 1.315-1.934 3.077-1.528 4.419l6.075-5.699c-1.326-.509-3.144-.055-4.547 1.28z" style="fill:rgb(132, 155, 135);animation-play-state:paused" ></path>
<path fill="#849b87" d="M64.26 47.897c1.993-1.833 2.506-4.518 1.145-5.997-1.36-1.479-4.079-1.192-6.072.641a6.553 6.553 0 0 0-.499.533l-.187 5.845c1.452 1.011 3.821.626 5.613-1.022z" style="fill:rgb(132, 155, 135);animation-play-state:paused" ></path>
<path fill="#333" d="M62.082 59.021a3.923 3.923 0 0 0 .177-5.539c-.983-1.048-2.41-1.419-3.72-1.124l-.077 2.42a1.677 1.677 0 0 1 2.164.236 1.677 1.677 0 0 1-2.251 2.471l-.077 2.42c1.289.378 2.735.099 3.784-.884z" style="fill:rgb(51, 51, 51);animation-play-state:paused" ></path>
<path fill="#e15c64" d="M75.343 50.034l-2.466-9.001c-.209-.764-1.156-1.062-1.746-.534-1.559 1.393-2.25 3.836-1.58 6.28.674 2.459 2.532 4.215 4.597 4.605.763.145 1.4-.601 1.195-1.35z" style="fill:rgb(225, 92, 100);animation-play-state:paused" ></path>
<path fill="#e15c64" d="M67.35 52.022l-4.337-1.914c-.873-.385-1.767.466-1.447 1.364.361 1.015 1.196 1.93 2.358 2.443 1.163.513 2.401.512 3.394.095.879-.369.904-1.603.032-1.988z" style="fill:rgb(225, 92, 100);animation-play-state:paused" ></path></g>
<metadata xmlns:d="https://loading.io/stock/" style="animation-play-state:paused" ><d:name style="animation-play-state:paused" >food</d:name>


<d:tags style="animation-play-state:paused" >food,hackathon,party,dinner,fried chicken,pizza,pizzahut,domino's</d:tags>


<d:license style="animation-play-state:paused" >by</d:license>


<d:slug style="animation-play-state:paused" >fzhp1h</d:slug></metadata></g><!-- generated by https://loading.io/ --></svg>