<svg xmlns="http://www.w3.org/2000/svg" data-name="Layer 1" viewBox="0 0 512 512"><path d="M263,377.5a7.5,7.5,0,1,0-7.5,7.5A7.5,7.5,0,0,0,263,377.5ZM324.48,467h-137a7.5,7.5,0,1,0,0,15h137a7.5,7.5,0,0,0,0-15ZM233,377.5a7.5,7.5,0,1,0-7.5,7.5A7.5,7.5,0,0,0,233,377.5ZM370.46.12H326a7.33,7.33,0,0,0-2.6,0H188.57a7.33,7.33,0,0,0-2.6,0H141.54A37.54,37.54,0,0,0,104,37.62V474.5a37.54,37.54,0,0,0,37.5,37.5H370.46A37.54,37.54,0,0,0,408,474.5V37.62A37.54,37.54,0,0,0,370.46.12Zm-58,15-6.9,13.69a9.62,9.62,0,0,1-8.66,5.3H215.08a9.62,9.62,0,0,1-8.66-5.3l-6.9-13.69ZM393,474.5a22.53,22.53,0,0,1-22.5,22.5H141.54A22.53,22.53,0,0,1,119,474.5V37.62a22.52,22.52,0,0,1,22.5-22.5h41.19L193,35.55a24.57,24.57,0,0,0,22.06,13.56h81.84A24.57,24.57,0,0,0,319,35.55l10.29-20.43h41.19A22.52,22.52,0,0,1,393,37.62ZM343.18,180.07l-82.62-66a7.52,7.52,0,0,0-9.36,0l-82.82,66.13a7.49,7.49,0,0,0-4.61,6.92v30a7.5,7.5,0,0,0,7.5,7.5H181v70.63a22.54,22.54,0,0,0-17.23,21.87v15a7.5,7.5,0,0,0,7.5,7.5H340.73a7.5,7.5,0,0,0,7.5-7.5v-15A22.54,22.54,0,0,0,331,295.28V224.65h9.73a7.5,7.5,0,0,0,7.5-7.5v-30A7.5,7.5,0,0,0,343.18,180.07Zm-87.3-50.51,62.74,50.09H193.15Zm77.35,187.59v7.5H178.77v-7.5a7.51,7.51,0,0,1,7.5-7.5H325.73A7.51,7.51,0,0,1,333.23,317.15ZM196,294.65v-70h15v70Zm30,0v-70h60v70Zm75,0v-70h15v70Zm32.23-85H178.77v-15H333.23Zm-77.35-57.18a8.53,8.53,0,1,0,8.53,8.53A8.53,8.53,0,0,0,255.88,152.47ZM293,377.5a7.5,7.5,0,1,0-7.5,7.5A7.5,7.5,0,0,0,293,377.5Z"/></svg>